<?xml version="1.0" standalone="no"?>
<!DOCTYPE svg PUBLIC "-//W3C//DTD SVG 20010904//EN"
 "http://www.w3.org/TR/2001/REC-SVG-20010904/DTD/svg10.dtd">
<svg version="1.0" xmlns="http://www.w3.org/2000/svg"
 width="149.000000pt" height="149.000000pt" viewBox="0 0 149.000000 149.000000"
 preserveAspectRatio="xMidYMid meet">
<metadata>
Created by potrace 1.14, written by Peter Selinger 2001-2017
</metadata>
<g transform="translate(0.000000,149.000000) scale(0.100000,-0.100000)"
fill="#000000" stroke="none">
<path d="M674 1222 c-6 -4 -16 -17 -23 -29 -10 -21 -19 -23 -79 -22 -37 1 -80
4 -97 8 -20 5 -40 1 -60 -11 -23 -13 -64 -18 -184 -23 -89 -3 -160 -10 -168
-16 -53 -45 64 -119 141 -89 21 8 50 7 109 -2 68 -10 81 -10 91 3 8 10 36 15
99 16 84 3 88 2 96 -21 8 -21 64 -56 89 -56 12 0 82 -77 82 -90 0 -24 53 -88
87 -104 l36 -17 -7 -61 c-7 -70 -33 -122 -63 -126 -24 -4 -83 66 -135 157 -17
31 -44 72 -59 91 -14 19 -34 52 -42 73 -18 41 -44 49 -69 20 -27 -31 -58 -102
-64 -146 -8 -54 7 -84 50 -102 17 -7 39 -22 48 -32 21 -23 51 -93 44 -100 -3
-3 -37 -5 -76 -4 -50 1 -77 -3 -95 -15 -22 -14 -55 -16 -225 -16 l-200 1 0
-43 c0 -51 -14 -48 195 -51 88 -1 176 -5 196 -9 27 -5 51 -1 88 14 32 12 75
20 112 20 63 0 66 -2 126 -74 33 -40 68 -35 117 19 l42 45 93 0 c51 0 101 4
111 10 13 7 28 5 52 -4 43 -18 124 -22 256 -11 l102 8 0 41 0 41 -143 3 c-80
2 -157 -2 -177 -8 -32 -9 -37 -8 -53 15 -21 28 -52 31 -126 14 -24 -5 -52 -7
-62 -4 -16 6 -14 12 21 71 22 35 40 70 40 77 0 6 16 32 35 56 19 24 35 54 35
66 0 12 -18 41 -40 64 -23 24 -52 61 -67 84 -14 23 -37 54 -51 70 l-26 27 62
2 c95 2 118 4 137 11 9 4 23 1 30 -6 16 -16 284 -31 331 -18 16 4 35 18 41 32
11 21 10 26 -7 40 -26 22 -126 39 -227 39 -64 0 -86 -4 -104 -19 -24 -19 -24
-19 -55 8 -27 24 -43 29 -118 35 -53 4 -94 2 -106 -4 -32 -17 -55 -11 -90 25
-33 34 -70 45 -96 27z"/>
</g>
</svg>
